<?xml version="1.0" encoding="UTF-8"?>
<svg width="144px" height="144px" enable-background="new 0 0 144 144" version="1.1" viewBox="19 19 106 106" xmlns="http://www.w3.org/2000/svg">
 <path d="m123.62 70.716-4.4-2.72c-0.03-0.428-0.08-0.855-0.12-1.28l3.77-3.522c0.39-0.358 0.56-0.888 0.46-1.401-0.11-0.515-0.47-0.939-0.96-1.122l-4.82-1.805c-0.13-0.418-0.25-0.833-0.38-1.246l3.01-4.182c0.31-0.425 0.37-0.978 0.17-1.463-0.2-0.483-0.64-0.829-1.16-0.914l-5.09-0.828c-0.19-0.386-0.4-0.766-0.61-1.143l2.14-4.695c0.22-0.478 0.18-1.034-0.12-1.468-0.29-0.436-0.78-0.691-1.31-0.671l-5.16 0.18c-0.27-0.334-0.54-0.665-0.82-0.99l1.19-5.032c0.12-0.511-0.03-1.046-0.4-1.417-0.37-0.37-0.91-0.523-1.42-0.403l-5.03 1.186c-0.33-0.276-0.66-0.549-0.99-0.816l0.18-5.166c0.02-0.523-0.24-1.02-0.67-1.31-0.44-0.292-0.99-0.336-1.47-0.119l-4.694 2.14c-0.379-0.208-0.759-0.414-1.143-0.613l-0.83-5.091c-0.084-0.516-0.43-0.954-0.914-1.154-0.483-0.201-1.037-0.136-1.462 0.17l-4.185 3.011c-0.412-0.131-0.826-0.257-1.244-0.377l-1.805-4.828c-0.183-0.492-0.607-0.853-1.122-0.955-0.514-0.101-1.043 0.07-1.4 0.452l-3.522 3.779c-0.425-0.047-0.853-0.09-1.28-0.125l-2.72-4.395c-0.275-0.445-0.762-0.716-1.286-0.716s-1.011 0.271-1.285 0.716l-2.72 4.395c-0.428 0.035-0.856 0.078-1.281 0.125l-3.523-3.779c-0.357-0.382-0.887-0.553-1.4-0.452-0.515 0.103-0.939 0.463-1.122 0.955l-1.805 4.828c-0.418 0.12-0.832 0.247-1.245 0.377l-4.184-3.011c-0.425-0.307-0.979-0.372-1.463-0.17-0.483 0.2-0.83 0.638-0.914 1.154l-0.83 5.091c-0.384 0.199-0.764 0.404-1.143 0.613l-4.694-2.14c-0.477-0.218-1.033-0.173-1.467 0.119-0.436 0.29-0.691 0.787-0.671 1.31l0.18 5.166c-0.334 0.267-0.665 0.54-0.992 0.816l-5.031-1.186c-0.511-0.119-1.047 0.033-1.417 0.403-0.372 0.371-0.523 0.906-0.403 1.417l1.185 5.032c-0.275 0.326-0.547 0.656-0.814 0.99l-5.166-0.18c-0.521-0.015-1.019 0.235-1.31 0.671-0.292 0.434-0.336 0.99-0.119 1.468l2.14 4.695c-0.208 0.377-0.414 0.757-0.613 1.143l-5.09 0.828c-0.517 0.084-0.953 0.43-1.154 0.914-0.2 0.485-0.135 1.038 0.17 1.463l3.011 4.182c-0.131 0.413-0.258 0.828-0.378 1.246l-4.828 1.805c-0.49 0.183-0.851 0.607-0.953 1.122-0.102 0.514 0.069 1.043 0.452 1.401l3.777 3.522c-0.047 0.425-0.089 0.853-0.125 1.28l-4.394 2.72c-0.445 0.275-0.716 0.761-0.716 1.286s0.271 1.011 0.716 1.285l4.394 2.72c0.036 0.428 0.078 0.855 0.125 1.28l-3.777 3.523c-0.383 0.357-0.554 0.887-0.452 1.4 0.102 0.515 0.463 0.938 0.953 1.122l4.828 1.805c0.12 0.418 0.247 0.833 0.378 1.246l-3.011 4.183c-0.306 0.426-0.371 0.979-0.17 1.462 0.201 0.485 0.638 0.831 1.155 0.914l5.089 0.828c0.199 0.386 0.403 0.766 0.613 1.145l-2.14 4.693c-0.218 0.472-0.173 1.032 0.119 1.472 0.292 0.43 0.789 0.69 1.31 0.67l5.164-0.18c0.269 0.33 0.54 0.66 0.816 0.99l-1.185 5.03c-0.12 0.51 0.031 1.04 0.403 1.41 0.369 0.38 0.906 0.53 1.417 0.41l5.031-1.19c0.327 0.28 0.658 0.55 0.992 0.82l-0.18 5.16c-0.02 0.53 0.235 1.02 0.671 1.31 0.434 0.29 0.99 0.34 1.467 0.12l4.694-2.14c0.378 0.21 0.758 0.42 1.143 0.61l0.83 5.09c0.084 0.52 0.43 0.96 0.914 1.16 0.483 0.2 1.038 0.13 1.463-0.17l4.182-3.01c0.413 0.13 0.828 0.25 1.246 0.37l1.805 4.83c0.183 0.49 0.607 0.85 1.122 0.95 0.514 0.11 1.043-0.06 1.4-0.45l3.523-3.78c0.425 0.05 0.853 0.09 1.281 0.13l2.72 4.4c0.274 0.44 0.761 0.71 1.285 0.71s1.011-0.27 1.286-0.71l2.72-4.4c0.428-0.04 0.855-0.08 1.28-0.13l3.522 3.78c0.357 0.39 0.887 0.56 1.4 0.45 0.515-0.1 0.939-0.46 1.122-0.95l1.805-4.83c0.418-0.12 0.833-0.24 1.246-0.37l4.183 3.01c0.425 0.3 0.979 0.37 1.462 0.17 0.484-0.2 0.83-0.64 0.914-1.16l0.83-5.09c0.384-0.19 0.764-0.4 1.143-0.61l4.694 2.14c0.481 0.22 1.031 0.17 1.471-0.12 0.43-0.29 0.69-0.78 0.67-1.31l-0.18-5.16c0.33-0.27 0.66-0.54 0.99-0.82l5.03 1.19c0.51 0.12 1.05-0.03 1.41-0.41 0.38-0.37 0.53-0.9 0.41-1.41l-1.19-5.03c0.28-0.33 0.55-0.66 0.82-0.99l5.16 0.18c0.52 0.02 1.02-0.24 1.31-0.67 0.29-0.44 0.34-1 0.12-1.472l-2.14-4.693c0.21-0.379 0.42-0.759 0.61-1.145l5.09-0.828c0.52-0.083 0.96-0.429 1.16-0.914 0.2-0.483 0.13-1.036-0.17-1.462l-3.01-4.183c0.13-0.413 0.25-0.828 0.37-1.246l4.83-1.805c0.49-0.184 0.85-0.607 0.95-1.122 0.11-0.514-0.06-1.043-0.45-1.4l-3.77-3.523c0.04-0.425 0.08-0.853 0.12-1.28l4.4-2.72c0.44-0.274 0.71-0.761 0.71-1.285s-0.27-1.011-0.71-1.286zm-29.412 36.454c-1.678-0.36-2.745-2.02-2.385-3.7 0.359-1.68 2.012-2.75 3.689-2.39 1.678 0.36 2.747 2.02 2.387 3.7s-2.014 2.75-3.691 2.39zm-29.305-73.115 4.786 5.021c1.082 1.133 2.874 1.175 4.006 0.092l5.355-5.122c11.221 2.089 20.721 9.074 26.2 18.657l-3.67 8.28c-0.63 1.433 0.01 3.109 1.44 3.744l7.06 3.135c1.41 12.759-4.2 24.055-10.79 30.62l-6.575-1.413c-1.531-0.328-3.037 0.646-3.365 2.18l-1.56 7.281c-4.814 2.18-10.16 3.4-15.79 3.4-5.759 0-11.221-1.28-16.121-3.55l-1.559-7.284c-0.328-1.532-1.834-2.508-3.364-2.179l-6.427 1.38c-6.766-7.116-11.776-17.277-10.575-30.744l6.695-2.975c1.43-0.635 2.076-2.311 1.441-3.744l-3.48-7.874c6.033-10.654 16.069-16.952 26.293-18.905zm-15.44 72.955c-1.678 0.37-3.33-0.7-3.691-2.38-0.359-1.69 0.708-3.34 2.386-3.7s3.331 0.71 3.691 2.39c0.359 1.68-0.709 3.33-2.386 3.69zm-11.863-48.1c0.696 1.571-0.012 3.412-1.581 4.107-1.569 0.697-3.405-0.012-4.101-1.584s0.012-3.41 1.581-4.107c1.57-0.696 3.405 0.012 4.101 1.584zm32.091-29.126c1.24-1.188 3.207-1.141 4.394 0.101 1.185 1.245 1.14 3.214-0.103 4.401-1.24 1.188-3.207 1.142-4.394-0.102-1.184-1.243-1.139-3.212 0.103-4.4zm36.379 29.277c0.7-1.571 2.53-2.28 4.1-1.583 1.57 0.696 2.28 2.536 1.58 4.107-0.69 1.572-2.53 2.281-4.1 1.584-1.57-0.696-2.27-2.535-1.58-4.108z"/>
 <path d="m54.513 109.48c-0.05127-0.1258-4.1669-11.566-2.8378-12.266 1.2858-0.67762 3.7073-2.9081 3.9482-3.6918 0.70493-2.2933 1.468-3.3358 5.0648-6.9194 3.0004-2.9894 3.7634-3.9461 4.7866-6.0015 1.1268-2.2635 1.6614-4.3267 1.7748-6.8495 0.07055-1.5695-0.09097-3.5156-0.31014-3.7364-0.06963-0.07019-0.3491 0.05168-0.69051 0.30095-1.274 0.93028-3.1703 2.054-5.7081 3.3826-5.1221 2.6816-5.9979 3.4784-7.9347 7.2191-0.48032 0.92766-1.0986 2.0209-1.3739 2.4293-1.2233 1.8149-2.9718 2.6497-4.099 1.9572-0.47493-0.29175-0.70484-0.66356-0.81077-1.3112-0.07141-0.43655-0.10027-0.45805-0.65588-0.4887-3.0133-0.16623-5.1099-1.7431-5.7727-4.3418-0.43587-1.7089 0.02594-4.1608 1.2142-6.4466 0.26349-0.50688 1.2557-2.0958 2.205-3.5309 2.0846-3.1516 2.7251-4.3102 3.2819-5.9363 0.41678-1.217 0.42457-1.2819 0.43137-3.5879 0.0085-2.9397-0.0076-2.903 2.3246-5.2187 1.9601-1.9461 2.7922-3.1123 2.7919-3.9129-1e-4 -0.28763-0.11656-1.932-0.25881-3.6542-0.30005-3.6326-0.30665-3.8488-0.11745-3.8488 0.07785 0 1.8105 1.0096 3.8503 2.2435 2.0398 1.2339 3.8056 2.2467 3.9239 2.2506 0.11834 0.0039 1.2186-1.0674 2.4449-2.3807 1.3151-1.4083 2.3103-2.3716 2.4261-2.3484 0.1167 0.02339 0.80761 1.3887 1.7035 3.3663l1.5072 3.3269 0.51567-0.03378c2.1394-0.14014 5.0049-0.07571 6.0429 0.13587 3.6293 0.73977 6.7039 2.4176 9.3649 5.1103 3.0617 3.0982 5.0594 6.6733 7.0022 12.531 2.7559 8.3095 5.1936 22.373 5.2835 30.968 0 0-4.6355 0.85216-4.5089 4.0117 0.2623 6.5448-7.3748 9.1924-14.395 9.0137s-22.327-1.5244-22.415-1.7412zm39.799-12.642c0.32476-0.3272 0.32858-0.35411 0.24507-1.7287-0.47199-7.7694-1.2958-13.737-2.8675-20.771-1.3314-5.9588-2.6917-10.091-4.4672-13.569-1.1696-2.2912-2.3331-3.9319-3.9345-5.5484-3.1606-3.1902-6.9464-4.8959-11.332-5.1058-2.0745-0.09928-4.4352 0.21206-4.8946 0.64553-0.40092 0.37825-0.34957 1.0795 0.10391 1.4191 0.3083 0.23084 0.38857 0.23314 1.6187 0.04634 4.8467-0.73596 9.3285 0.68069 12.904 4.0788 3.5044 3.3306 5.9632 8.9118 8.0595 18.294 1.5184 6.7956 2.3529 12.681 2.8029 19.766 0.12486 1.966 0.17196 2.2512 0.41463 2.5115 0.36995 0.39675 0.93103 0.3806 1.3473-0.03875zm-50.634-18.572c0.98911-0.69279 1.4706-1.2863 1.4715-1.8138 8.49e-4 -0.46545-0.3537-1.0453-0.77226-1.2634-1.2733-0.6634-2.4088 0.57842-2.56 2.7996-0.03839 0.56444-0.03238 1.1246 0.01339 1.2447 0.09569 0.25122 0.14406 0.2259 1.8473-0.9671zm7.7073-16.354c0.78196-0.40313 1.3415-0.82159 2.0496-1.533 0.89497-0.89903 1.9453-2.4313 1.9453-2.8379 0-0.09311-0.14948-0.22654-0.33217-0.29652-0.82898-0.31754-1.9102 0.02653-2.6112 0.83101-0.3833 0.43983-2.625 4.1187-2.625 4.3079 0 0.21238 0.58963 0.03568 1.5734-0.47147z" stroke-width=".12998"/>
</svg>
