<?xml version="1.0" encoding="UTF-8"?>
<svg width="144px" height="144px" enable-background="new 0 0 144 144" version="1.1" viewBox="19 19 106 106" xmlns="http://www.w3.org/2000/svg">
 <path d="m124 71-4-3c-0.03-0.4-0.08-0.9-0.1-1l4-4c0.4-0.4 0.6-0.9 0.5-1-0.1-0.5-0.5-0.9-1-1l-5-2c-0.1-0.4-0.2-0.8-0.4-1l3-4c0.3-0.4 0.4-1 0.2-1-0.2-0.5-0.6-0.8-1-0.9l-5-0.8c-0.2-0.4-0.4-0.8-0.6-1l2-5c0.2-0.5 0.2-1-0.1-1-0.3-0.4-0.8-0.7-1-0.7l-5 0.2c-0.3-0.3-0.5-0.7-0.8-1l1-5c0.1-0.5-0.03-1-0.4-1s-0.9-0.5-1-0.4l-5 1c-0.3-0.3-0.7-0.5-1-0.8l0.2-5c0.02-0.5-0.2-1-0.7-1-0.4-0.3-1-0.3-1-0.1l-5 2c-0.4-0.2-0.8-0.4-1-0.6l-0.8-5c-0.08-0.5-0.4-1-0.9-1-0.5-0.2-1-0.1-1 0.2l-4 3c-0.4-0.1-0.8-0.3-1-0.4l-2-5c-0.2-0.5-0.6-0.9-1-1-0.5-0.1-1 0.07-1 0.5l-4 4c-0.4-0.05-0.9-0.09-1-0.1l-3-4c-0.3-0.4-0.8-0.7-1-0.7s-1 0.3-1 0.7l-3 4c-0.4 0.04-0.9 0.08-1 0.1l-4-4c-0.4-0.4-0.9-0.6-1-0.5-0.5 0.1-0.9 0.5-1 1l-2 5c-0.4 0.1-0.8 0.2-1 0.4l-4-3c-0.4-0.3-1-0.4-1-0.2-0.5 0.2-0.8 0.6-0.9 1l-0.8 5c-0.4 0.2-0.8 0.4-1 0.6l-5-2c-0.5-0.2-1-0.2-1 0.1-0.4 0.3-0.7 0.8-0.7 1l0.2 5c-0.3 0.3-0.7 0.5-1 0.8l-5-1c-0.5-0.1-1 0.03-1 0.4-0.4 0.4-0.5 0.9-0.4 1l1 5c-0.3 0.3-0.5 0.7-0.8 1l-5-0.2c-0.5-0.02-1 0.2-1 0.7-0.3 0.4-0.3 1-0.1 1l2 5c-0.2 0.4-0.4 0.8-0.6 1l-5 0.8c-0.5 0.08-1 0.4-1 0.9-0.2 0.5-0.1 1 0.2 1l3 4c-0.1 0.4-0.3 0.8-0.4 1l-5 2c-0.5 0.2-0.9 0.6-1 1-0.1 0.5 0.07 1 0.5 1l4 4c-0.05 0.4-0.09 0.9-0.1 1l-4 3c-0.4 0.3-0.7 0.8-0.7 1s0.3 1 0.7 1l4 3c0.04 0.4 0.08 0.9 0.1 1l-4 4c-0.4 0.4-0.6 0.9-0.5 1 0.1 0.5 0.5 0.9 1 1l5 2c0.1 0.4 0.2 0.8 0.4 1l-3 4c-0.3 0.4-0.4 1-0.2 1 0.2 0.5 0.6 0.8 1 0.9l5 0.8c0.2 0.4 0.4 0.8 0.6 1l-2 5c-0.2 0.5-0.2 1 0.1 1 0.3 0.4 0.8 0.7 1 0.7l5-0.2c0.3 0.3 0.5 0.7 0.8 1l-1 5c-0.1 0.5 0.03 1 0.4 1 0.4 0.4 0.9 0.5 1 0.4l5-1c0.3 0.3 0.7 0.6 1 0.8l-0.2 5c-0.02 0.5 0.2 1 0.7 1 0.4 0.3 1 0.3 1 0.1l5-2c0.4 0.2 0.8 0.4 1 0.6l0.8 5c0.08 0.5 0.4 1 0.9 1 0.5 0.2 1 0.1 1-0.2l4-3c0.4 0.1 0.8 0.2 1 0.4l2 5c0.2 0.5 0.6 0.8 1 1 0.5 0.1 1-0.06 1-0.4l4-4c0.4 0.05 0.9 0.09 1 0.1l3 4c0.3 0.4 0.8 0.7 1 0.7s1-0.3 1-0.7l3-4c0.4-0.04 0.9-0.08 1-0.1l4 4c0.4 0.4 0.9 0.6 1 0.4 0.5-0.1 0.9-0.5 1-1l2-5c0.4-0.1 0.8-0.2 1-0.4l4 3c0.4 0.3 1 0.4 1 0.2 0.5-0.2 0.8-0.6 0.9-1l0.8-5c0.4-0.2 0.8-0.4 1-0.6l5 2c0.5 0.2 1 0.2 1-0.1 0.4-0.3 0.7-0.8 0.7-1l-0.2-5c0.3-0.3 0.7-0.5 1-0.8l5 1c0.5 0.1 1-0.03 1-0.4 0.4-0.4 0.5-0.9 0.4-1l-1-5c0.3-0.3 0.6-0.7 0.8-1l5 0.2c0.5 0.02 1-0.2 1-0.7 0.3-0.4 0.3-1 0.1-1l-2-5c0.2-0.4 0.4-0.8 0.6-1l5-0.8c0.5-0.08 1-0.4 1-0.9 0.2-0.5 0.1-1-0.2-1l-3-4c0.1-0.4 0.2-0.8 0.4-1l5-2c0.5-0.2 0.8-0.6 1-1 0.1-0.5-0.06-1-0.4-1l-4-4c0.04-0.4 0.08-0.9 0.1-1l4-3c0.4-0.3 0.7-0.8 0.7-1s-0.3-1-0.7-1zm-29 36c-2-0.4-3-2-2-4 0.4-2 2-3 4-2s3 2 2 4-2 3-4 2zm-29-73 5 5c1 1 3 1 4 0.09l5-5c11 2 21 9 26 19l-4 8c-0.6 1 0.01 3 1 4l7 3c1 13-4 24-11 31l-7-1c-2-0.3-3 0.6-3 2l-2 7c-5 2-10 3-16 3-6 0-11-1-16-4l-2-7c-0.3-2-2-3-3-2l-6 1c-7-7-12-17-11-31l7-3c1-0.6 2-2 1-4l-3-8c6-11 16-17 26-19zm-15 73c-2 0.4-3-0.7-4-2-0.4-2 0.7-3 2-4s3 0.7 4 2c0.4 2-0.7 3-2 4zm-12-48c0.7 2-0.01 3-2 4-2 0.7-3-0.01-4-2s0.01-3 2-4c2-0.7 3 0.01 4 2zm32-29c1-1 3-1 4 0.1 1 1 1 3-0.1 4-1 1-3 1-4-0.1-1-1-1-3 0.1-4zm36 29c0.7-2 3-2 4-2 2 0.7 2 3 2 4-0.7 2-3 2-4 2-2-0.7-2-3-2-4z" fill="#808080"/>
 <path d="m54 109c-0.05-0.1-4-12-3-12 1-0.7 4-3 4-4 0.7-2 1-3 5-7 3-3 4-4 5-6 1-2 2-4 2-7 0.07-2-0.09-4-0.3-4-0.07-0.07-0.3 0.05-0.7 0.3-1 0.9-3 2-6 3-5 3-6 3-8 7-0.5 0.9-1 2-1 2-1 2-3 3-4 2-0.5-0.3-0.7-0.7-0.8-1-0.07-0.4-0.1-0.5-0.7-0.5-3-0.2-5-2-6-4-0.4-2 0.03-4 1-6 0.3-0.5 1-2 2-4 2-3 3-4 3-6 0.4-1 0.4-1 0.4-4 8e-3 -3-8e-3 -3 2-5 2-2 3-3 3-4-1e-4 -0.3-0.1-2-0.3-4-0.3-4-0.3-4-0.1-4 0.08 0 2 1 4 2s4 2 4 2c0.1 4e-3 1-1 2-2 1-1 2-2 2-2 0.1 0.02 0.8 1 2 3l2 3 0.5-0.03c2-0.1 5-0.08 6 0.1 4 0.7 7 2 9 5 3 3 5 7 7 12 3 8 5 22 5 31 0 0-5 0.9-5 4 0.3 7-7 9-14 9s-22-2-22-2zm40-13c0.3-0.3 0.3-0.4 0.2-2-0.5-8-1-14-3-21-1-6-3-10-4-14-1-2-2-4-4-6-3-3-7-5-11-5-2-0.1-4 0.2-5 0.6-0.4 0.4-0.4 1 0.1 1 0.3 0.2 0.4 0.2 2 0.05 5-0.7 9 0.7 13 4 4 3 6 9 8 18 2 7 2 13 3 20 0.1 2 0.2 2 0.4 3 0.4 0.4 0.9 0.4 1-0.04zm-51-19c1-0.7 1-1 1-2 8e-4 -0.5-0.4-1-0.8-1-1-0.7-2 0.6-3 3-0.04 0.6-0.03 1 0.01 1 0.1 0.3 0.1 0.2 2-1zm8-16c0.8-0.4 1-0.8 2-2 0.9-0.9 2-2 2-3 0-0.09-0.1-0.2-0.3-0.3-0.8-0.3-2 0.03-3 0.8-0.4 0.4-3 4-3 4 0 0.2 0.6 0.04 2-0.5z" fill="#808080" stroke-width=".1"/>
</svg>
