<?xml version="1.0" encoding="UTF-8"?>
<svg width="144px" height="144px" enable-background="new 0 0 144 144" version="1.1" viewBox="19 19 106 106" xmlns="http://www.w3.org/2000/svg" xmlns:xlink="http://www.w3.org/1999/xlink">
 <defs>
  <linearGradient id="linearGradient3319" x1="21.7" x2="124" y1="21.6" y2="123" gradientUnits="userSpaceOnUse">
   <stop stop-color="#f00" offset="0"/>
   <stop stop-color="#f60" offset=".165"/>
   <stop stop-color="#ff0" offset=".328"/>
   <stop stop-color="#0f0" offset=".48"/>
   <stop stop-color="#0ff" offset=".661"/>
   <stop stop-color="#000080" offset=".831"/>
   <stop stop-color="#f0f" offset="1"/>
  </linearGradient>
 </defs>
 <path transform="matrix(.736 0 0 .736 19 19)" d="m72.6 0.891c-0.717 0-1.37 0.368-1.74 0.973l-3.7 5.98c-0.581 0.0475-1.16 0.106-1.74 0.17l-4.78-5.13c-0.485-0.519-1.21-0.752-1.9-0.615-0.7 0.14-1.28 0.63-1.52 1.3l-2.45 6.56c-0.568 0.163-1.13 0.335-1.69 0.512l-5.68-4.09c-0.577-0.417-1.33-0.505-1.98-0.23-0.656 0.272-1.13 0.865-1.24 1.56l-1.13 6.92c-0.522 0.27-1.04 0.548-1.55 0.832l-6.37-2.91c-0.648-0.296-1.4-0.237-2 0.16-0.592 0.394-0.939 1.07-0.912 1.78l0.244 7.02c-0.454 0.363-0.903 0.732-1.35 1.11l-6.83-1.62c-0.694-0.162-1.43 0.0462-1.93 0.549-0.505 0.504-0.71 1.23-0.547 1.93l1.6 6.83c-0.374 0.443-0.745 0.892-1.11 1.35l-7.02-0.246c-0.708-0.0204-1.39 0.32-1.78 0.912-0.397 0.59-0.457 1.35-0.162 2l2.91 6.38c-0.283 0.512-0.562 1.03-0.832 1.55l-6.92 1.12c-0.702 0.114-1.29 0.585-1.56 1.24-0.272 0.659-0.182 1.41 0.232 1.98l4.09 5.68c-0.178 0.561-0.351 1.13-0.514 1.7l-6.56 2.44c-0.666 0.249-1.16 0.827-1.29 1.52-0.139 0.698 0.093 1.41 0.613 1.9l5.14 4.78c-0.0638 0.577-0.121 1.16-0.17 1.74l-5.96 3.7c-0.605 0.374-0.973 1.03-0.973 1.75 0 0.719 0.368 1.37 0.973 1.74l5.96 3.7c0.0489 0.581 0.106 1.16 0.17 1.74l-5.14 4.78c-0.52 0.485-0.752 1.21-0.613 1.9 0.139 0.7 0.629 1.27 1.29 1.52l6.56 2.45c0.163 0.568 0.336 1.13 0.514 1.7l-4.09 5.68c-0.416 0.579-0.505 1.33-0.232 1.98 0.273 0.659 0.867 1.13 1.58 1.24l6.92 1.12c0.27 0.524 0.547 1.04 0.832 1.55l-2.91 6.37c-0.296 0.641-0.235 1.4 0.162 2 0.397 0.584 1.07 0.937 1.78 0.91l7.01-0.244c0.365 0.448 0.734 0.895 1.11 1.34l-1.6 6.83c-0.163 0.693 0.0435 1.41 0.549 1.92 0.501 0.516 1.23 0.72 1.93 0.557l6.83-1.62c0.444 0.38 0.894 0.748 1.35 1.12l-0.244 7.01c-0.0272 0.72 0.318 1.39 0.91 1.78 0.59 0.394 1.35 0.461 2 0.162l6.37-2.91c0.514 0.285 1.03 0.57 1.55 0.828l1.13 6.91c0.114 0.706 0.585 1.3 1.24 1.58 0.656 0.272 1.41 0.177 1.98-0.23l5.68-4.09c0.561 0.177 1.12 0.341 1.7 0.504l2.45 6.56c0.249 0.666 0.825 1.16 1.52 1.29 0.698 0.149 1.41-0.0815 1.9-0.611l4.78-5.13c0.577 0.0679 1.16 0.121 1.74 0.176l3.69 5.98c0.372 0.598 1.04 0.965 1.74 0.965 0.705 0 1.37-0.367 1.75-0.965l3.7-5.98c0.581-0.0543 1.16-0.108 1.74-0.176l4.78 5.13c0.485 0.53 1.2 0.761 1.9 0.611 0.7-0.136 1.28-0.625 1.52-1.29l2.45-6.56c0.568-0.163 1.13-0.327 1.7-0.504l5.68 4.09c0.577 0.408 1.33 0.502 1.98 0.23 0.658-0.272 1.13-0.87 1.24-1.58l1.13-6.91c0.522-0.258 1.04-0.543 1.55-0.828l6.37 2.91c0.653 0.299 1.4 0.232 2-0.162 0.584-0.394 0.937-1.06 0.91-1.78l-0.244-7.01c0.448-0.367 0.897-0.735 1.35-1.12l6.83 1.62c0.693 0.163 1.43-0.0404 1.92-0.557 0.516-0.503 0.72-1.22 0.557-1.92l-1.62-6.83c0.38-0.448 0.748-0.895 1.12-1.34l7.01 0.244c0.706 0.0272 1.39-0.326 1.78-0.91 0.394-0.598 0.461-1.36 0.162-2l-2.91-6.37c0.285-0.515 0.57-1.03 0.828-1.55l6.91-1.12c0.706-0.113 1.3-0.583 1.58-1.24 0.272-0.656 0.177-1.41-0.23-1.98l-4.09-5.68c0.177-0.561 0.341-1.12 0.504-1.7l6.56-2.45c0.666-0.25 1.16-0.825 1.29-1.52 0.149-0.698-0.0815-1.41-0.611-1.9l-5.12-4.78c0.0543-0.577 0.108-1.16 0.162-1.74l5.98-3.7c0.598-0.372 0.965-1.03 0.965-1.74 0-0.705-0.367-1.37-0.965-1.75h-0.0313l-5.98-3.7c-0.0408-0.581-0.108-1.16-0.162-1.74l5.12-4.78c0.53-0.486 0.761-1.2 0.625-1.9-0.149-0.7-0.639-1.28-1.3-1.52l-6.55-2.44c-0.177-0.568-0.339-1.13-0.516-1.7l4.09-5.68c0.421-0.577 0.502-1.33 0.23-1.98-0.272-0.656-0.87-1.13-1.58-1.24l-6.91-1.12c-0.258-0.524-0.543-1.04-0.828-1.55l2.91-6.38c0.299-0.649 0.245-1.4-0.162-2-0.394-0.592-1.06-0.939-1.78-0.912l-7.01 0.246c-0.367-0.454-0.733-0.904-1.11-1.35l1.62-6.83c0.163-0.694-0.0403-1.43-0.543-1.93s-1.24-0.712-1.93-0.549l-6.83 1.62c-0.448-0.375-0.895-0.745-1.34-1.11l0.244-7.02c0.0272-0.71-0.326-1.39-0.91-1.78-0.598-0.397-1.35-0.455-2-0.16l-6.37 2.91c-0.515-0.283-1.03-0.562-1.55-0.832l-1.13-6.92c-0.114-0.701-0.585-1.29-1.24-1.56-0.656-0.273-1.41-0.185-1.98 0.23l-5.68 4.09c-0.56-0.178-1.12-0.349-1.68-0.512l-2.45-6.56c-0.249-0.668-0.825-1.16-1.52-1.3-0.698-0.137-1.41 0.0963-1.9 0.615l-4.78 5.13c-0.577-0.0638-1.16-0.122-1.74-0.17l-3.7-5.98c-0.374-0.605-1.04-0.973-1.75-0.973zm-0.119 12.7c1.08 0.0256 2.15 0.464 2.95 1.31 1.6 1.68 1.55 4.36-0.141 5.98-1.68 1.62-4.36 1.55-5.96-0.139-1.6-1.68-1.55-4.36 0.139-5.98 0.842-0.808 1.93-1.19 3.01-1.17zm9.7 6.86c15.2 2.84 28.1 12.3 35.6 25.4l-4.99 11.2c-0.856 1.94 0.0144 4.22 1.96 5.08l9.59 4.27c1.92 17.4-5.71 32.7-14.7 41.6l-5.39-1.16c0.00589-0.00112 0.0859-0.0215 0.0859-0.0215-0.122-11.7-3.42-30.8-7.17-42.1-2.64-7.92-5.35-12.8-9.51-17-3.61-3.65-7.78-5.94-12.7-6.94-1.41-0.288-5.3-0.376-8.21-0.186l-0.699 0.0469-2.05-4.52c-1.21-2.69-2.15-4.55-2.31-4.58-0.163-0.0272-1.51 1.28-3.3 3.19-1.66 1.78-3.15 3.24-3.31 3.23-0.149 0-2.55-1.39-5.33-3.06s-5.12-3.04-5.23-3.04c-0.258 0-0.247 0.299 0.16 5.23 0.193 2.34 0.351 4.57 0.352 4.96 0 1.09-1.13 2.66-3.79 5.31-3.16 3.15-3.14 3.1-3.15 7.09-0.00815 3.14-0.0175 3.22-0.584 4.88-0.747 2.21-1.63 3.79-4.46 8.07-1.28 1.94-2.63 4.11-2.99 4.8-1.61 3.11-2.24 6.44-1.64 8.76 0.897 3.53 3.75 5.67 7.84 5.89 0.755 0.0421 0.794 0.0724 0.891 0.666 0.144 0.878 0.456 1.38 1.1 1.78 1.54 0.937 3.91-0.205 5.57-2.66 0.367-0.557 1.21-2.04 1.86-3.3 2.62-5.08 3.82-6.17 10.8-9.81 3.45-1.81 6.03-3.33 7.76-4.59 0.465-0.339 0.845-0.504 0.939-0.408 0.298 0.299 0.516 2.95 0.42 5.08-0.149 3.42-0.869 6.24-2.4 9.31-1.4 2.78-2.43 4.09-6.51 8.15-4.88 4.86-5.92 6.29-6.87 9.4-0.326 1.06-3.61 4.09-5.37 5.01-0.121 0.0637-0.207 0.197-0.266 0.383-0.0432 0.0078-0.0856 0.00434-0.129 0.0137l-8.74 1.88c-9.2-9.67-16-23.5-14.4-41.7l9.1-4.05c1.94-0.863 2.82-3.14 1.96-5.08l-4.73-10.7c8.19-14.5 21.9-23.1 35.7-25.7v-0.111l6.51 6.82c1.47 1.54 3.9 1.6 5.45 0.125l7.28-6.96zm-11.2 21.1c0.358 1.95e-4 0.717 0.00853 1.07 0.0254 5.91 0.285 11.1 2.61 15.3 6.94 2.17 2.2 3.75 4.43 5.34 7.54 2.42 4.75 4.27 10.4 6.07 18.5 2.13 9.65 3.26 17.7 3.9 28.3 0.114 1.87 0.109 1.91-0.332 2.35l0.0449-0.0352c-0.569 0.57-1.33 0.592-1.83 0.0527-0.33-0.353-0.393-0.734-0.563-3.41-0.611-9.65-1.74-17.7-3.8-26.9-2.85-12.8-6.19-20.3-10.9-24.9-4.85-4.62-10.9-6.54-17.5-5.54-1.67 0.254-1.78 0.251-2.2-0.0625-0.617-0.462-0.687-1.42-0.143-1.93 0.535-0.516 3.07-0.904 5.58-0.902zm-22.8 9.54c0.311-2.01e-4 0.613 0.0522 0.895 0.16 0.249 0.0951 0.451 0.278 0.451 0.404 0 0.557-1.43 2.64-2.65 3.86-0.965 0.962-1.72 1.53-2.79 2.08l0.00976 0.00391c-1.33 0.688-2.13 0.929-2.13 0.641 0-0.258 3.04-5.26 3.56-5.86 0.713-0.82 1.72-1.29 2.65-1.29zm-26.2 0.73c1.64-0.0285 3.22 0.912 3.93 2.51 0.946 2.13-0.0164 4.63-2.15 5.58-2.13 0.947-4.62-0.0164-5.57-2.15-0.951-2.13 0.0164-4.63 2.15-5.58 0.533-0.236 1.09-0.354 1.63-0.363zm101 0.27c0.548 0.00998 1.1 0.127 1.64 0.365 2.13 0.946 3.1 3.45 2.15 5.58-0.937 2.13-3.44 3.1-5.57 2.15-2.13-0.946-3.08-3.45-2.15-5.58 0.713-1.6 2.29-2.54 3.93-2.51zm-89.2 23.4c0.303-0.00472 0.622 0.0733 0.945 0.242 0.568 0.285 1.05 1.08 1.05 1.71 0 0.706-0.653 1.52-2 2.46l0.00195 0.00391c-2.32 1.62-2.38 1.66-2.51 1.31-0.0622-0.163-0.0697-0.919-0.0176-1.69 0.166-2.45 1.22-4.02 2.53-4.04zm7.5 35.9c1.97-0.0182 3.73 1.34 4.16 3.34 0.488 2.28-0.964 4.52-3.25 5.01-2.28 0.503-4.52-0.952-5.01-3.23-0.488-2.3 0.961-4.54 3.25-5.03 0.286-0.0611 0.571-0.0931 0.852-0.0957zm62.6 0.123c0.281 0.0026 0.566 0.0326 0.852 0.0938 2.28 0.489 3.74 2.75 3.25 5.03-0.489 2.28-2.73 3.74-5.01 3.25h-0.0137c-2.28-0.489-3.72-2.74-3.23-5.03 0.427-2 2.2-3.36 4.16-3.34z" fill="url(#linearGradient3319)" stroke-width="1.36"/>
</svg>
