<?xml version="1.0" encoding="UTF-8"?>
<svg width="144px" height="144px" enable-background="new 0 0 144 144" version="1.1" viewBox="19 19 106 106" xmlns="http://www.w3.org/2000/svg">
 <path d="m124 70.7-4.4-2.72c-0.03-0.428-0.08-0.855-0.12-1.28l3.77-3.52c0.39-0.358 0.56-0.888 0.46-1.4-0.11-0.515-0.47-0.939-0.96-1.12l-4.82-1.8c-0.13-0.418-0.25-0.833-0.38-1.25l3.01-4.18c0.31-0.425 0.37-0.978 0.17-1.46-0.2-0.483-0.64-0.829-1.16-0.914l-5.09-0.828c-0.19-0.386-0.4-0.766-0.61-1.14l2.14-4.7c0.22-0.478 0.18-1.03-0.12-1.47-0.29-0.436-0.78-0.691-1.31-0.671l-5.16 0.18c-0.27-0.334-0.54-0.665-0.82-0.99l1.19-5.03c0.12-0.511-0.03-1.05-0.4-1.42-0.37-0.37-0.91-0.523-1.42-0.403l-5.03 1.19c-0.33-0.276-0.66-0.549-0.99-0.816l0.18-5.17c0.02-0.523-0.24-1.02-0.67-1.31-0.44-0.292-0.99-0.336-1.47-0.119l-4.69 2.14c-0.379-0.208-0.759-0.414-1.14-0.613l-0.83-5.09c-0.084-0.516-0.43-0.954-0.914-1.15-0.483-0.201-1.04-0.136-1.46 0.17l-4.18 3.01c-0.412-0.131-0.826-0.257-1.24-0.377l-1.8-4.83c-0.183-0.492-0.607-0.853-1.12-0.955-0.514-0.101-1.04 0.07-1.4 0.452l-3.52 3.78c-0.425-0.047-0.853-0.09-1.28-0.125l-2.72-4.4c-0.275-0.445-0.762-0.716-1.29-0.716s-1.01 0.271-1.28 0.716l-2.72 4.4c-0.428 0.035-0.856 0.078-1.28 0.125l-3.52-3.78c-0.357-0.382-0.887-0.553-1.4-0.452-0.515 0.103-0.939 0.463-1.12 0.955l-1.8 4.83c-0.418 0.12-0.832 0.247-1.24 0.377l-4.18-3.01c-0.425-0.307-0.979-0.372-1.46-0.17-0.483 0.2-0.83 0.638-0.914 1.15l-0.83 5.09c-0.384 0.199-0.764 0.404-1.14 0.613l-4.69-2.14c-0.477-0.218-1.03-0.173-1.47 0.119-0.436 0.29-0.691 0.787-0.671 1.31l0.18 5.17c-0.334 0.267-0.665 0.54-0.992 0.816l-5.03-1.19c-0.511-0.119-1.05 0.033-1.42 0.403-0.372 0.371-0.523 0.906-0.403 1.42l1.18 5.03c-0.275 0.326-0.547 0.656-0.814 0.99l-5.17-0.18c-0.521-0.015-1.02 0.235-1.31 0.671-0.292 0.434-0.336 0.99-0.119 1.47l2.14 4.7c-0.208 0.377-0.414 0.757-0.613 1.14l-5.09 0.828c-0.517 0.084-0.953 0.43-1.15 0.914-0.2 0.485-0.135 1.04 0.17 1.46l3.01 4.18c-0.131 0.413-0.258 0.828-0.378 1.25l-4.83 1.8c-0.49 0.183-0.851 0.607-0.953 1.12-0.102 0.514 0.069 1.04 0.452 1.4l3.78 3.52c-0.047 0.425-0.089 0.853-0.125 1.28l-4.39 2.72c-0.445 0.275-0.716 0.761-0.716 1.29s0.271 1.01 0.716 1.28l4.39 2.72c0.036 0.428 0.078 0.855 0.125 1.28l-3.78 3.52c-0.383 0.357-0.554 0.887-0.452 1.4 0.102 0.515 0.463 0.938 0.953 1.12l4.83 1.8c0.12 0.418 0.247 0.833 0.378 1.25l-3.01 4.18c-0.306 0.426-0.371 0.979-0.17 1.46 0.201 0.485 0.638 0.831 1.16 0.914l5.09 0.828c0.199 0.386 0.403 0.766 0.613 1.14l-2.14 4.69c-0.218 0.472-0.173 1.03 0.119 1.47 0.292 0.43 0.789 0.69 1.31 0.67l5.16-0.18c0.269 0.33 0.54 0.66 0.816 0.99l-1.18 5.03c-0.12 0.51 0.031 1.04 0.403 1.41 0.369 0.38 0.906 0.53 1.42 0.41l5.03-1.19c0.327 0.28 0.658 0.55 0.992 0.82l-0.18 5.16c-0.02 0.53 0.235 1.02 0.671 1.31 0.434 0.29 0.99 0.34 1.47 0.12l4.69-2.14c0.378 0.21 0.758 0.42 1.14 0.61l0.83 5.09c0.084 0.52 0.43 0.96 0.914 1.16 0.483 0.2 1.04 0.13 1.46-0.17l4.18-3.01c0.413 0.13 0.828 0.25 1.25 0.37l1.8 4.83c0.183 0.49 0.607 0.85 1.12 0.95 0.514 0.11 1.04-0.06 1.4-0.45l3.52-3.78c0.425 0.05 0.853 0.09 1.28 0.13l2.72 4.4c0.274 0.44 0.761 0.71 1.28 0.71s1.01-0.27 1.29-0.71l2.72-4.4c0.428-0.04 0.855-0.08 1.28-0.13l3.52 3.78c0.357 0.39 0.887 0.56 1.4 0.45 0.515-0.1 0.939-0.46 1.12-0.95l1.8-4.83c0.418-0.12 0.833-0.24 1.25-0.37l4.18 3.01c0.425 0.3 0.979 0.37 1.46 0.17 0.484-0.2 0.83-0.64 0.914-1.16l0.83-5.09c0.384-0.19 0.764-0.4 1.14-0.61l4.69 2.14c0.481 0.22 1.03 0.17 1.47-0.12 0.43-0.29 0.69-0.78 0.67-1.31l-0.18-5.16c0.33-0.27 0.66-0.54 0.99-0.82l5.03 1.19c0.51 0.12 1.05-0.03 1.41-0.41 0.38-0.37 0.53-0.9 0.41-1.41l-1.19-5.03c0.28-0.33 0.55-0.66 0.82-0.99l5.16 0.18c0.52 0.02 1.02-0.24 1.31-0.67 0.29-0.44 0.34-1 0.12-1.47l-2.14-4.69c0.21-0.379 0.42-0.759 0.61-1.14l5.09-0.828c0.52-0.083 0.96-0.429 1.16-0.914 0.2-0.483 0.13-1.04-0.17-1.46l-3.01-4.18c0.13-0.413 0.25-0.828 0.37-1.25l4.83-1.8c0.49-0.184 0.85-0.607 0.95-1.12 0.11-0.514-0.06-1.04-0.45-1.4l-3.77-3.52c0.04-0.425 0.08-0.853 0.12-1.28l4.4-2.72c0.44-0.274 0.71-0.761 0.71-1.28s-0.27-1.01-0.71-1.29zm-29.4 36.5c-1.68-0.36-2.74-2.02-2.38-3.7 0.359-1.68 2.01-2.75 3.69-2.39 1.68 0.36 2.75 2.02 2.39 3.7s-2.01 2.75-3.69 2.39zm-29.3-73.1 4.79 5.02c1.08 1.13 2.87 1.18 4.01 0.092l5.36-5.12c11.2 2.09 20.7 9.07 26.2 18.7l-3.67 8.28c-0.63 1.43 0.01 3.11 1.44 3.74l7.06 3.14c1.41 12.8-4.2 24.1-10.8 30.6l-6.58-1.41c-1.53-0.328-3.04 0.646-3.36 2.18l-1.56 7.28c-4.81 2.18-10.2 3.4-15.8 3.4-5.76 0-11.2-1.28-16.1-3.55l-1.56-7.28c-0.328-1.53-1.83-2.51-3.36-2.18l-6.43 1.38c-6.77-7.12-11.8-17.3-10.6-30.7l6.7-2.98c1.43-0.635 2.08-2.31 1.44-3.74l-3.48-7.87c6.03-10.7 16.1-17 26.3-18.9zm-15.4 73c-1.68 0.37-3.33-0.7-3.69-2.38-0.359-1.69 0.708-3.34 2.39-3.7s3.33 0.71 3.69 2.39c0.359 1.68-0.709 3.33-2.39 3.69zm-11.9-48.1c0.696 1.57-0.012 3.41-1.58 4.11-1.57 0.697-3.4-0.012-4.1-1.58s0.012-3.41 1.58-4.11c1.57-0.696 3.4 0.012 4.1 1.58zm32.1-29.1c1.24-1.19 3.21-1.14 4.39 0.101 1.18 1.24 1.14 3.21-0.103 4.4-1.24 1.19-3.21 1.14-4.39-0.102-1.18-1.24-1.14-3.21 0.103-4.4zm36.4 29.3c0.7-1.57 2.53-2.28 4.1-1.58 1.57 0.696 2.28 2.54 1.58 4.11-0.69 1.57-2.53 2.28-4.1 1.58-1.57-0.696-2.27-2.54-1.58-4.11z" fill="#f00"/>
 <path d="m54.5 109c-0.0513-0.126-4.17-11.6-2.84-12.3 1.29-0.678 3.71-2.91 3.95-3.69 0.705-2.29 1.47-3.34 5.06-6.92 3-2.99 3.76-3.95 4.79-6 1.13-2.26 1.66-4.33 1.77-6.85 0.0706-1.57-0.091-3.52-0.31-3.74-0.0696-0.0702-0.349 0.0517-0.691 0.301-1.27 0.93-3.17 2.05-5.71 3.38-5.12 2.68-6 3.48-7.93 7.22-0.48 0.928-1.1 2.02-1.37 2.43-1.22 1.81-2.97 2.65-4.1 1.96-0.475-0.292-0.705-0.664-0.811-1.31-0.0714-0.437-0.1-0.458-0.656-0.489-3.01-0.166-5.11-1.74-5.77-4.34-0.436-1.71 0.0259-4.16 1.21-6.45 0.263-0.507 1.26-2.1 2.2-3.53 2.08-3.15 2.73-4.31 3.28-5.94 0.417-1.22 0.425-1.28 0.431-3.59 0.0085-2.94-0.0076-2.9 2.32-5.22 1.96-1.95 2.79-3.11 2.79-3.91-1e-4 -0.288-0.117-1.93-0.259-3.65-0.3-3.63-0.307-3.85-0.117-3.85 0.0778 0 1.81 1.01 3.85 2.24s3.81 2.25 3.92 2.25c0.118 0.0039 1.22-1.07 2.44-2.38 1.32-1.41 2.31-2.37 2.43-2.35 0.117 0.0234 0.808 1.39 1.7 3.37l1.51 3.33 0.516-0.0338c2.14-0.14 5-0.0757 6.04 0.136 3.63 0.74 6.7 2.42 9.36 5.11 3.06 3.1 5.06 6.67 7 12.5 2.76 8.31 5.19 22.4 5.28 31 0 0-4.64 0.852-4.51 4.01 0.262 6.54-7.37 9.19-14.4 9.01s-22.3-1.52-22.4-1.74zm39.8-12.6c0.325-0.327 0.329-0.354 0.245-1.73-0.472-7.77-1.3-13.7-2.87-20.8-1.33-5.96-2.69-10.1-4.47-13.6-1.17-2.29-2.33-3.93-3.93-5.55-3.16-3.19-6.95-4.9-11.3-5.11-2.07-0.0993-4.44 0.212-4.89 0.646-0.401 0.378-0.35 1.08 0.104 1.42 0.308 0.231 0.389 0.233 1.62 0.0463 4.85-0.736 9.33 0.681 12.9 4.08 3.5 3.33 5.96 8.91 8.06 18.3 1.52 6.8 2.35 12.7 2.8 19.8 0.125 1.97 0.172 2.25 0.415 2.51 0.37 0.397 0.931 0.381 1.35-0.0388zm-50.6-18.6c0.989-0.693 1.47-1.29 1.47-1.81 8.49e-4 -0.465-0.354-1.05-0.772-1.26-1.27-0.663-2.41 0.578-2.56 2.8-0.0384 0.564-0.0324 1.12 0.0134 1.24 0.0957 0.251 0.144 0.226 1.85-0.967zm7.71-16.4c0.782-0.403 1.34-0.822 2.05-1.53 0.895-0.899 1.95-2.43 1.95-2.84 0-0.0931-0.149-0.227-0.332-0.297-0.829-0.318-1.91 0.0265-2.61 0.831-0.383 0.44-2.62 4.12-2.62 4.31 0 0.212 0.59 0.0357 1.57-0.471z" fill="#f00" stroke-width=".13"/>
</svg>
